<?xml version="1.0" standalone="no"?>
<!DOCTYPE svg PUBLIC "-//W3C//DTD SVG 20010904//EN"
 "http://www.w3.org/TR/2001/REC-SVG-20010904/DTD/svg10.dtd">
<svg version="1.0" xmlns="http://www.w3.org/2000/svg"
 width="256.000000pt" height="256.000000pt" viewBox="0 0 256.000000 256.000000"
 preserveAspectRatio="xMidYMid meet">
<metadata>
Created by potrace 1.11, written by Peter Selinger 2001-2013
</metadata>
<g transform="translate(0.000000,256.000000) scale(0.100000,-0.100000)"
fill="#000000" stroke="none">
<path d="M2109 2537 c-47 -31 -71 -81 -64 -132 l5 -40 -160 -160 -160 -160
-140 140 c-127 127 -142 139 -175 139 -30 0 -45 -9 -92 -57 -48 -47 -57 -62
-57 -92 0 -30 9 -45 57 -93 31 -32 57 -62 57 -67 0 -6 -192 -201 -426 -435
-245 -245 -434 -442 -447 -465 -30 -57 -30 -165 1 -222 l22 -42 -25 -43 c-32
-57 -33 -119 -1 -174 l24 -42 -260 -258 c-142 -143 -261 -269 -264 -282 -8
-27 11 -52 39 -52 14 0 109 88 287 264 l265 265 29 -21 c18 -13 49 -23 82 -26
43 -4 61 0 99 22 l47 26 41 -22 c55 -29 165 -31 217 -4 55 29 820 796 820 823
0 19 -25 43 -45 43 -3 0 -30 -22 -59 -50 l-53 -50 -64 63 c-113 111 -208 136
-362 97 -128 -33 -199 -16 -279 67 l-38 39 50 49 49 49 55 -52 c55 -52 82 -62
104 -40 22 22 12 49 -40 104 l-52 55 47 47 47 47 53 -53 c52 -52 82 -63 105
-40 22 22 13 42 -43 98 l-55 56 50 49 50 50 345 -345 c402 -402 375 -385 472
-287 48 47 57 62 57 92 0 33 -12 48 -139 175 l-140 140 160 161 c159 159 160
160 198 154 45 -6 92 12 127 50 20 21 25 37 25 81 l0 54 -150 151 c-82 83
-162 157 -177 165 -39 20 -80 17 -119 -9z m223 -204 c136 -136 154 -163 126
-191 -27 -27 -54 -9 -185 120 -134 133 -156 165 -133 193 27 33 54 16 192
-122z m-124 -950 l-32 -34 -413 413 -413 412 32 33 32 34 413 -413 413 -412
-32 -33z m-1521 -695 c51 -51 93 -96 93 -99 0 -4 -14 -12 -31 -18 -23 -8 -38
-7 -62 3 -37 15 -111 92 -122 125 -6 21 11 81 24 81 3 0 47 -42 98 -92z"/>
</g>
</svg>
